<svg xmlns="http://www.w3.org/2000/svg" viewBox="0 0 512 512" fill="currentColor">
  <path d="M248 503.7C239 497.8 103.7 369.8 87.1 274.8c-11.3-65.1 19.2-133.4 76.5-172.7C209.9 70.5 235.3 61 256 61c20.7 0 46.1 9.5 92.4 41.1 57.3 39.3 87.8 107.6 76.5 172.7-16.6 95-151.9 223-167.9 228.9-3 1.4-6 1.4-9 0zM256 93.4c-9.2 0-22.1 3.9-49.8 21.4-42.6 29.2-65.5 80.8-56.9 129.5 10.4 59.5 84.2 142.6 106.7 168.2 22.5-25.6 96.3-108.7 106.7-168.2 8.6-48.7-14.3-100.3-56.9-129.5-27.7-17.5-40.6-21.4-49.8-21.4z"/>
</svg>
